/* XPM */
static char * blockf1_xpm[] = {
"64 16 2 1",
" 	c None",
".	c #2428EA",
" .............................................................. ",
" .............................................................. ",
"............................................................... ",
".............................................................   ",
"............................................................... ",
"............................................................... ",
"............................................................... ",
" ............................................................   ",
"  ............................................................. ",
" .............................................................. ",
"  ............................................................. ",
" ............................................................   ",
" .............................................................. ",
"  ............................................................. ",
" .............................................................. ",
" ............................................................   "};
