/* XPM */
static char * block2r_xpm[] = {
"64 16 2 1",
" 	c None",
".	c #0048FF",
"    ..      ...........................        ..............   ",
"  ..................................... ......................  ",
"    ...................................        .............    ",
" .............................................................. ",
"................................................................",
"................................................................",
"................................................................",
"................................................................",
"................................................................",
"................................................................",
"................................................................",
" .............................................................. ",
" .............................................................. ",
"    ........................................................    ",
"   ..........................................................   ",
"       ..................              ..................       "};
