/* XPM */
static char * blockca1_xpm[] = {
"64 16 2 1",
" 	c None",
".	c #0000FF",
"                ............. .......... ...................... ",
"                ............ ............ ..................... ",
"                ............ ............ ..................... ",
"                ............ ............ ..................... ",
"                             ............                       ",
"                  ...........................................   ",
"                  ...........................................   ",
"                ............................................... ",
"                ............................................... ",
"                ............................................... ",
"                ............................................... ",
"                ............................................... ",
"                ............................................... ",
"                ............................................... ",
"                ............................................... ",
"                ............................................... "};
