/* XPM */
static char * blockca3_xpm[] = {
"64 16 2 1",
" 	c None",
".	c #0000FF",
"                                              ................. ",
"                                              ................  ",
"                                              .... .........   .",
"                                             .... ........... ..",
"                                             ...  ............. ",
"                                             ...   ...........  ",
"                                            .....  .........    ",
"                                            ..... ...........   ",
"                                            ....  ...........   ",
"                                           .....   .........    ",
"                                           ......  .........    ",
"                                          ....... ...........   ",
"                                          ......  ...........   ",
"                                         .......   .........    ",
"                                        .........  .........    ",
"                                       .......... ...........   "};
