/* XPM */
static char * blockdb6r_xpm[] = {
"64 16 2 1",
" 	c None",
".	c #001EFF",
"................................................................",
"................................................................",
"................................................................",
"............................................................... ",
"............................................................... ",
"............................................................... ",
"..............................................................  ",
"..............................................................  ",
".............................................................   ",
"............................................................    ",
"...................................   ....................      ",
"..............................         ................         ",
".........................               ...........             ",
"....................                                            ",
"................                                                ",
"...........                                                     "};
