/* XPM */
static char * blockdb4r_xpm[] = {
"64 16 2 1",
" 	c None",
".	c #001EFF",
"......                                                          ",
"......                                                          ",
".......                                                         ",
".......                                                         ",
"........                                                        ",
".........                                                       ",
"..........                                                      ",
"...........                                                     ",
"............                                                ....",
".............                                            .......",
"..............                                        ..........",
"...............                                   ..............",
"................                             ...................",
".................                        .......................",
"..................      ....       .............................",
"...................    ........................................."};
