/* XPM */
static char * blockcb6_xpm[] = {
"64 16 2 1",
" 	c None",
".	c #0000FF",
"........................................                        ",
".........................................                       ",
"                ..........................                      ",
"...............  .........................                      ",
"...............  .........................                      ",
"                ..........................                      ",
".........................................                       ",
"........................................                        ",
"                                                                ",
"           .............                                        ",
"..        ...............                                       ",
"...      ...................                                    ",
" ..      ...................  .. .. ..                  .....   ",
" ...   ...............................          ..      ......  ",
"  .................................... .. .. .. ...     ....... ",
"   ...............................................      ....... "};
