/* XPM */
static char * rblocke2_xpm[] = {
"64 16 2 1",
" 	c None",
".	c #2428EA",
"   ...........................................................  ",
" .........................................................      ",
" ......................................................         ",
" ...................................................            ",
"   ..............................................               ",
"   ...........................................                  ",
"  .........................................                     ",
" ........................................                       ",
".......................................                         ",
".....................................                           ",
"...................................                             ",
".................................                               ",
"...............................                                 ",
".............................                                   ",
"...........................                                     ",
".........................                                       "};
