/* XPM */
static char * blocka2r_xpm[] = {
"64 16 2 1",
" 	c None",
".	c #001EFF",
".................................... ...........................",
"...................................   ..........................",
"..................................  ............................",
"..................................  ............................",
"...................................  .......................... ",
"...................................  .......................... ",
"....................................  ........................  ",
" ...............................       .....................    ",
" ...............................      ......................    ",
"  ..................................  ......................    ",
"      ...............................  ........... ........     ",
"      ...............................         ...               ",
"      ..............................           .  ...........   ",
"      ........................................   .............  ",
"      ......................................... ............... ",
"      ......................................... ............... "};
