/* XPM */
static char * blockb1r_xpm[] = {
"64 16 2 1",
" 	c None",
".	c #001EFF",
" ............................................................   ",
"  ..........................................................    ",
"   ........................................................     ",
"    ......................................................      ",
"     .......................................................    ",
"     .......................................................    ",
"     ........................................................   ",
"     ........................................................   ",
"     ........................................................   ",
"     .......................................................    ",
"     .......................................................    ",
"   ..........................................................   ",
"   ..........................................................   ",
"   ..........................................................   ",
"  ..........................................................    ",
" ...........................................................    "};
