/* XPM */
static char * blockb2_2_xpm[] = {
"64 16 2 1",
" 	c None",
".	c #001EFF",
" ...............................................................",
" ..........................................  ........ ......... ",
"  .............................  .........   .......  .. .....  ",
"    ..........................     .......  ... ....  ......... ",
"   ...................................  ......   .............. ",
"  ..................................... ......    .....  .....  ",
" ..............................................  .....  ....... ",
" .............................................. ......  ....... ",
" .. . . .........            ..........................  .....  ",
" ..............                ........................ ....... ",
" ............     ..........     .............................. ",
"   ...... ...   ..............        .............. . . .....  ",
"  ........ .. ..................   ............................ ",
"  ........ ...................... ............................. ",
"   ......  ...................... .....................  .....  ",
"  ........ ...................... ............           .....  "};
