/* XPM */
static char * blockdb3r_xpm[] = {
"64 16 2 1",
" 	c None",
".	c #001EFF",
"..          ............................       .....     .......",
"...         ............................               .........",
"....        ...............................              .......",
".....       ...............................                 ....",
"......      ...............................                    .",
".......     ...............................                  ...",
"........     ..............................                    .",
"........      .............................                     ",
"........       ............................                     ",
"........    ...............................                     ",
"........    ..............................                      ",
"........     ............................                       ",
".......       ..........................                        ",
".......                                                         ",
".......                                                         ",
"......                                                          "};
