/* XPM */
static char * cursor_xpm[] = {
"248 28 2 1",
" 	c None",
".	c #0000FF",
"                                                                                                           ..                              ..                                                                                                           ",
"                                                                                                          ..........                ..........                                                                                                          ",
"              ...                                                           ...              ..........................          ..........................              ...                                                           ...              ",
"             ............                                                  ............        ..........................      ..........................        ............                                                  ............             ",
"...........................                   ..              ...........................        .........................    .........................        ...........................              ..                   ...........................",
"  ...........................                ... .........      ...........................          ......................  ......................          ...........................      ......... ...                ...........................  ",
"   ........................... ............. ...............     ...........................            ...................  ...................            ...........................     ............... ............. ...........................   ",
"      ........................ ..............................       ........................                ............        ............                ........................       .............................. ........................      ",
"           ...................   ............................            ...................               ..............      ..............               ...................            ............................   ...................           ",
"     ........................     ..........................       ........................               ................    ................               ........................       ..........................     ........................     ",
"..............................         ...................... ..............................             ..................  ..................             .............................. ......................         ..............................",
"..............................              ................. ..............................            ...................  ...................            .............................. .................              ..............................",
"  .............................            ...................  .............................     ....................................................     .............................  ...................            .............................  ",
"     ..........................            ...................     ..................................................................................................................     ...................            ..........................     ",
"     ..........................            ...................     ..................................................................................................................     ...................            ..........................     ",
"  .............................            ...................  .............................     ....................................................     .............................  ...................            .............................  ",
"..............................              ................. ..............................            ...................  ...................            .............................. .................              ..............................",
"..............................         ...................... ..............................             ..................  ..................             .............................. ......................         ..............................",
"     ........................     ..........................       ........................               ................    ................               ........................       ..........................     ........................     ",
"           ...................   ............................            ...................               ..............      ..............               ...................            ............................   ...................           ",
"      ........................ ..............................       ........................                ............        ............                ........................       .............................. ........................      ",
"   ........................... ............. ...............     ...........................            ...................  ...................            ...........................     ............... ............. ...........................   ",
"  ...........................                ... .........      ...........................          ......................  ......................          ...........................      ......... ...                ...........................  ",
"...........................                   ..              ...........................        .........................    .........................        ...........................              ..                   ...........................",
"             ............                                                  ............        ..........................      ..........................        ............                                                  ............             ",
"              ...                                                           ...              ..........................          ..........................              ...                                                           ...              ",
"                                                                                                          ..........                ..........                                                                                                          ",
"                                                                                                           ...                            ...                                                                                                           "};
