/* XPM */
static char * module_xpm[] = {
"506 28 2 1",
" 	c None",
".	c #0000FF",
"                                                                            .....                           .........                      . .......                       .   .                                 .                           .                                                              .                           .                                 .   .                       ....... .                      .........                           .....                                            ",
"                                         ... ...                         ............                     .............               .    .  ........                     .   .  ..                   .         .                           .                         .          .                         .                           .         .                   ..  .   .                     ........  .    .               .............                     ............                         ... ...         ",
"        ..           ..                ..........                      ..............                   ...............                .   ..  .........                   ..  .. ....                  ...     ..   .                       ...       .               .          .               .       ...                       .   ..     ...                  .... ..  ..                   .........  ..   .                ...............                   ..............                      ..........       ",
"       .....        .....            ............                     ................                .    ...............             ...  ..  ..........                 ..  .. ......                 ...    ..  .. .                     ...      .                .          .                .      ...                     . ..  ..    ...                 ...... ..  ..                 ..........  ..  ...             ...............    .                ................                     ............     ",
"    ........        ........        ............                     .................                 ..   ..............              ... .. ............      ... ..  ....  ..  ......                .........  .. ...         .         .....   ..               ...        ...               ..   .....         .         ... ..  .........                ......  ..  ....  .. ...      ............ .. ...              ..............   ..                 .................                     ............    ",
"   ........          ........      ............          ....      ................                     ... ..............              ...................        .......................                ........ ..  ....        .     ..   ..... ..   ..           ...   ..   ...           ..   .. .....   ..     .        ....  .. ........                .......................        ...................              .............. ...                     ................      ....          ............   ",
"  .........   ....   .........     ...........   ...    .....           .........                 ....   .................             .....................        .......................                ..........  ....        ...  ..............  ..     .     .... ...... ....     .     ..  ..............  ...        ....  ..........                .......................        .....................             .................   ....                 .........           .....    ...   ...........   ",
"  ........   ......   ........    ............. ......  .....     ...   .......... ....             .................                 .......................           ....................          ..............  ......       ... ..............  ..  .    ..  ..................  ..    .  ..  .............. ...       ......  ..............          ....................           .......................                 .................             .... ..........   ...     .....  ...... .............  ",
" ........... ...... ...........   ....................  .......    .....................              ...............              ..........................         .......................  ..     ......................       ... .................  ..     ........................     ..  ................. ...       ......................     ..  .......................         ..........................              ...............              .....................    .......  ....................  ",
" ..............................  ... .................  .......      ...................   ....       ...................       ...................... .....         ........................   ...  .......................      .....................   ..      ......................      ..   .....................      .......................  ...   ........................         ..... ......................       ...................       ....   ...................      .......  ................. ... ",
"................................ .    ..........................      ..................   ....      ....................               .............     ..        ........................     ... ........................     ...................... .......   ....................   ....... ......................     ........................ ...     ........................        ..     .............               ....................      ....   ..................      ..........................    . ",
"................................    ...................................................   .....      .....................            .................             .........................    ............................................................  ............................  ............................................................    .........................             .................            .....................      .....   ...................................................    ",
"................................................................   ...................... ......   .......................            ...................           .................. ......     ...........................  ...............................   ........................   ...............................  ...........................     ...... ..................           ...................            .......................   ...... ......................   ................................",
"... ........................ ...     ...........................     ...........................  .......................   ..       ....................    ... ..  ................   .....     ...........................     .............................   ......................   .............................     ...........................     .....   ................  .. ...    ....................       ..   .......................  ...........................     ...........................     ",
"..   ......................   ..     ...........................     .............................. ..  ................   .....     ....................      .......................   ..       ...........................     .............................. ........................ ..............................     ...........................       ..   .......................      ....................     .....   ................  .. ..............................     ...........................     ",
".   ........................   .  ..............................     ...........................       .................. ......      ...................       .......................         ...................... ............................................................................................................ ......................         .......................       ...................      ...... ..................       ...........................     ..............................  ",
"  ............................  ................................    ............................       .........................      .................           .....................      .......................   .....     ........................................................................................     .....   .......................      .....................           .................      .........................       ............................    ................................",
"...   ....................   ...     ...................... ....    ... ........................       ........................         .............     ..      ....................             ..................   ....  .    ....................................................................................    .  ....   ..................             ....................      ..     .............         ........................       ........................ ...    .... ......................     ",
"     ......................          .....................   ..    ...  .......................         .............................................. .....       ...................            ...................   ....  ... .................  .......  ..............................  .......  ................. ...  ....   ...................            ...................       ..... ..............................................         .......................  ...    ..   .....................     ",
"    ........................          ... .................  ..   ..     ......................          .......................   ..........................      ...............              .....................          ....................  .......  ........... ...... ...........  .......  ....................          .....................              ...............      ..........................   .......................          ......................     ..   ..  ................. ...      ",
"   ..  ..................  ..         ... ..............  ..  .          ..............  ......            ....................       .......................    .................             ...   .......... ....           ............. ......  .....     ........   ......   ........     .....  ...... .............           .... ..........   ...             .................    .......................       ....................            ......  ..............          .  ..  .............. ...      ",
"  .     .... ...... ....     .        ...  ..............  ..                 ..........  ....         .......................         .....................   ....   .................              .........                  ...........   ...    .....     .........   ....   .........     .....    ...   ...........                  .........              .................   ....   .....................         .......................         ....  ..........                 ..  ..............  ...      ",
"         ...   ..   ...               .     ..   ..... ..   ..               ........ ..  ....        .......................           ...................          ... ..............         ................                ............          ....      ........          ........      ....          ............                ................         .............. ...          ...................           .......................        ....  .. ........               ..   .. .....   ..     .      ",
"         ...        ...               .         .....   ..                  .........  .. ...       ... ..  ....  ..  ......            ... .. ............         ..   ..............           .................              ............                    ........        ........                    ............              .................           ..............   ..         ............ .. ...            ......  ..  ....  .. ...       ... ..  .........                  ..   .....         .      ",
"          .          .                          ...      .                  ...    ..  .. .                   ..  .. ......            ...  ..  ..........         .    ...............            ................               ............                      .....        .....                      ............               ................            ...............    .         ..........  ..  ...            ...... ..  ..                   . ..  ..    ...                  .      ...                ",
"          .          .                          ...       .                ...     ..   .                     ..  .. ....              .   ..  .........             ...............                ..............                  ..........                       ..           ..                        ..........                  ..............                ...............             .........  ..   .              .... ..  ..                     .   ..     ...                .       ...                ",
"          .          .                          .                         .         .                         .   .  ..               .    .  ........                 .............                  ............                    ... ...                                                                ... ...                    ............                  .............                 ........  .    .               ..  .   .                         .         .                         .                ",
"                                                .                                   .                         .   .                        . .......                     .........                       .....                                                                                                                              .....                       .........                     ....... .                        .   .                         .                                   .                "};
