/* XPM */
static char * monster4_xpm[] = {
"120 32 2 1",
" 	c None",
".	c #1E00FF",
"         ............                  ............                  ............                  ............         ",
"      ..................            ..................            ..................            ..................      ",
"    ......................        ......................        ......................        ......................    ",
"   ........................      ........................      ........................      ........................   ",
"  ..........................    ..........................    ..........................    ..........................  ",
"  ..........................    ..........................    ..........................    ..........................  ",
" ............................  ............................  ............................  ............................ ",
" ............................  ............................  ............................  ............................ ",
"........................................................................................................................",
"........................................................................................................................",
"........................................................................................................................",
"........................................................................................................................",
" ............................  ............................  ............................  ............................ ",
"  ..........................    ..........................    ..........................    ..........................  ",
"    ......................        ......................        ......................        ......................    ",
"       ................               ..............                 ............                 ..............        ",
"        ..............                 ............           ...     ..........                   ............         ",
"       ................           .. ................       ...... .. .......... .. .....     .. ................       ",
"     ..................         .....................      ...............................  .....................       ",
"   ......................      ..........................  ............................... ..........................   ",
"  .........................    ........................... .... .......................... ...........................  ",
"  ..........................   ....  ...................... ...   ..................  ...  ....  ...................... ",
"  ..... .............. .....   ...   ................ .....  ...  ..................  ...  ...   ................ ..... ",
"  ...   ..............   ...    ...  ................   ...   ..  .................. ...    ...  ................   ... ",
"  ...   ..............   ...     ..  ................  ...    ..  .................. ..      ..  ................  ...  ",
"   ...   ............   ...       .   ..............  ...   ...    ................  ...      .   ..............  ...   ",
"   ...    ..........    ...      ..    ............   ..           ................   ....   ..    ............   ..    ",
"    ..      ......      ..     ...      ..........    ..            ..............         ...      ..........    ..    ",
"   ..        ..          ..             ........       ...           ............                   ........       ...  ",
"  ..        ..            ..           ..                               ......                     ..                   ",
"            ..                         .                                                           .                    ",
"            .                                                                                                           "};
