/* XPM */
static char * monsterpowerup_xpm[] = {
"28 25 2 1",
" 	c None",
".	c #0018FF",
"           .......          ",
"         ...........        ",
"       ...............      ",
"   ....................     ",
" .......................    ",
" ........................   ",
".........................   ",
"..........................  ",
"..........................  ",
"..........................  ",
"..........................  ",
" .........................  ",
" ...........................",
" .......................... ",
"  ........................  ",
"   .....................    ",
"      ..................    ",
"       ................ .   ",
"         ................   ",
"           ........ ......  ",
"                     .....  ",
"                      ..... ",
"                      ..... ",
"                        ....",
"                          .."};
