/* XPM */
static char * monster3_xpm[] = {
"192 32 2 1",
" 	c None",
".	c #0000FF",
"                                                                           .......                            .......                                                                           ",
"                                                                         ...........                        ...........                                                                         ",
"                                                                        .............                      .............                                                                        ",
"             .......                         .......                   ...............   ...        ...   ...............                   .......                         .......             ",
"           ...........                     ...........                 .....................        .....................                 ...........                     ...........           ",
"          .............                   .............               ......................        ......................               .............                   .............          ",
"         ...............   ...           ...............   ...      ........................        ........................      ...   ...............           ...   ...............         ",
"         .....................           .....................    .........................          .........................    .....................           .....................         ",
"        . ....................          ......................   .........................            .........................   ......................          .................... .        ",
"      ........................        ........................   .......................                .......................   ........................        ........................      ",
"    .........................       .........................   ........................                ........................   .........................       .........................    ",
"   .........................       .........................    ............................        ............................    .........................       .........................   ",
"   .......................         ........................      ..........................          ..........................      ........................         .......................   ",
"  .......................         .........................       ..................  ....            ....  ..................       .........................         .......................  ",
"  ...........................     ...........................     ................... ...              ... ...................     ...........................     ...........................  ",
"   .........................       .........................     .................... ..                .. ....................     .........................       .........................   ",
"    .......................         .......................      .............  ..... .                  . .....  .............      .......................         .......................    ",
"    ......................          ......................        ........ ...  ......                    ......  ... ........        ......................          ......................    ",
"   ............  ...........       .........................      ........       .....                    .....       ........      .........................       ...........  ............   ",
"   ............ .............      ..........................      ......        .....                    .....        ......      ..........................      ............. ............   ",
"    ........... ...... ......       ......... ........ ......      ......         .....                  .....         ......      ...... ........ .........       ...... ...... ...........    ",
"    .......     ......  ....        .........   ......  ....        ....        .......                  .......        ....        ....  ......   .........        ....  ......     .......    ",
"     ......    ......  .....         .......   ......  .....        ...       ........                    ........       ...        .....  ......   .......         .....  ......    ......     ",
"     ...............  .......        ...............  .......               .........                      .........               .......  ...............        .......  ...............     ",
"      .............. ........         .............. ........              ..........                      ..........              ........ ..............         ........ ..............      ",
"    ...............  ........       ...............  ........             ..........                        ..........             ........  ...............       ........  ...............    ",
"     ............   .........        ............   .........            ...........                        ...........            .........   ............        .........   ............     ",
"   .............    .........      .............    .........             .........                          .........             .........    .............      .........    .............   ",
" ..............     ..........   ..............     ..........         ............                          ............         ..........     ..............   ..........     .............. ",
"....... ........    ........... ................    ...........      ...............                        ...............      ...........    ................ ...........    ........ .......",
"....     ........  .......  .........    ........  .......  ....    .......    ......                      ......    .......    ....  .......  ........    .........  .......  ........     ....",
"           ...... .......    ...           ...... .......    ...    .....       ......                    ......       .....    ...    ....... ......           ...    ....... ......           "};
