/* XPM */
static char * monster1_xpm[] = {
"315 24 2 1",
" 	c None",
".	c #0000FF",
"            ....                                                                                ....                                                                                                                                                                                                       ....            ",
"           .....                                                                               .....                                                                                                                                                                                                       .....           ",
"          .......                                                                             .......                                                                                                                                                                                                     .......          ",
"         ........                                                                            ........                                                                                                                                                                                                     ........         ",
"        ..........                                                       .......            ..........                                                       .......        .......                                                        .......                                                       ..........        ",
"       ...........                                                     .........           ...........                                                     .........        .........                                                      .........                                                     ...........       ",
"     ..............            ......                                ............        ..............            ......                                ............      ............                                ......             ............                                ......            ..............     ",
"..................           .........                              .............   ..................           .........                 ......       .............      .............       ......                 .........           .............                              .........           ..................",
"     ............          ............                        ...................       ............           ...........          ............. ...................    ................... .............          ...........         ...................                        ............          ............     ",
"   .............          ..............                         .................     .............           .............    ...................  .................    .................  ...................    .............        .................                         ..............          .............   ",
"  .................. ....................   ...........         ...................   .................. ...................   .................... ...................  ................... ....................   ................... ...................         ...........   .................... ..................  ",
" .................... .................... ...................  .................... .................... ......................................... ........................................ ......................................... ....................  ................... .................... .................... ",
" .................... ......................................... .................... .................... .................... ...................  ........................................  ................... .................... .................... ......................................... .................... ",
"  ..................  ...................  .......................................    ..................  ...................   ...........        ....................  ....................        ...........   ...................   .......................................  ...................  ..................  ",
"   .............       .................    ...................      .............     .............       .................                            ..............    ..............                            .................    .............      ...................    .................       .............   ",
"     ............    ...................         .............        ...........        ............    ...................                             ............      ............                             ...................   ...........        .............         ...................    ............     ",
"..................        .............                ......          .........    ..................        .............                                .........        .........                                .............         .........          ......                .............        ..................",
"     ..............        ............                                  ......          ..............        ............                                  ......          ......                                  ............           ......                                  ............        ..............     ",
"       ...........           .........                                                     ...........           .........                                                                                            .........                                                      .........           ...........       ",
"        ..........             .......                                                      ..........             .......                                                                                            .......                                                        .......             ..........        ",
"         ........                                                                            ........                                                                                                                                                                                                     ........         ",
"          .......                                                                             .......                                                                                                                                                                                                     .......          ",
"           .....                                                                               .....                                                                                                                                                                                                       .....           ",
"            ....                                                                                ....                                                                                                                                                                                                       ....            "};
