/* XPM */
static char * monster6_xpm[] = {
"104 36 2 1",
" 	c None",
".	c #0130FD",
"                                                                                                        ",
"                                                                                                        ",
"                                          ..                ..                                          ",
"                                          ..                ..                                          ",
"                     .                    ..                ..                    .                     ",
"       .....        ... .....            .....            .....            ..... ...        .....       ",
"      ........       ..........         ........        ........         ..........       ........      ",
"     ..........       ..........       ..........      ..........       ..........       ..........     ",
"    ...........      ...........      ...........      ...........      ...........      ...........    ",
" ..............      ...........      ...........      ...........      ...........      .............. ",
" ...............     ............     ............    ............     ............     ............... ",
"     ...........      ...........      ...........    ...........      ...........      ...........     ",
"      ...... ..        ...... ..        ...... ..      .. ......        .. ......        .. ......      ",
"   .............    .............    .............    .............    .............    .............   ",
"    ........ ..      ........ ..      ........ ..      .. ........      .. ........      .. ........    ",
"   .............    .............    .............    .............    .............    .............   ",
"  ...............  ...............  ...............  ...............  ...............  ...............  ",
"                                                                                                        ",
"                                                                                                        ",
"  ...............  ...............  ...............  ...............  ...............  ...............  ",
"   .............    .............    .............    .............    .............    .............   ",
"    ........ ..      ........ ..      ........ ..      .. ........      .. ........      .. ........    ",
"   .............    .............    .............    .............    .............    .............   ",
"      ...... ..        ...... ..        ...... ..      .. ......        .. ......        .. ......      ",
"     ...........      ...........      ...........    ...........      ...........      ...........     ",
" ...............     ............     ............    ............     ............     ............... ",
" ..............      ...........      ...........      ...........      ...........      .............. ",
"    ...........      ...........      ...........      ...........      ...........      ...........    ",
"     ..........       ..........       ..........      ..........       ..........       ..........     ",
"      ........       ..........         ........        ........         ..........       ........      ",
"       .....        ... .....            .....            .....            ..... ...        .....       ",
"                     .                    ..                ..                    .                     ",
"                                          ..                ..                                          ",
"                                          ..                ..                                          ",
"                                                                                                        ",
"                                                                                                        "};
