/* XPM */
static char * monster2_xpm[] = {
"265 67 2 1",
" 	c None",
".	c #0914F8",
"                                                                                                                                                                                                                                                                         ",
"                                                                                                                                                                                                                                                                         ",
"                                                                                                                                                                                                                                                                         ",
"                                                                               .....                            .........                        . .......                          .   .                                  .                            .                ",
"                                           ... ...                          ............                      .............                 .    .  ........                        .   .  ..                    .         .                            .                ",
"         ..           ..                 ..........                       ..............                    ...............                  .   ..  .........                      ..  .. ....                   ...     ..   .                        ...       .      ",
"        .....        .....             ............                      ................                 .    ...............               ...  ..  ..........                    ..  .. ......                  ...    ..  .. .                      ...      .       ",
"     ........        ........         ............                      .................                  ..   ..............                ... .. ............         ... ..  ....  ..  ......                 .........  .. ...          .         .....   ..       ",
"    ........          ........       ............          ....       ................                      ... ..............                ...................           .......................                 ........ ..  ....         .     ..   ..... ..   ..   ",
"   .........   ....   .........      ...........   ...    .....            .........                  ....   .................               .....................           .......................                 ..........  ....         ...  ..............  ..    ",
"   ........   ......   ........     ............. ......  .....      ...   .......... ....              .................                   .......................              ....................           ..............  ......        ... ..............  ..  .  ",
"  ........... ...... ...........    ....................  .......     .....................               ...............                ..........................            .......................   ..     ......................        ... .................  ..  ",
"  ..............................   ... .................  .......       ...................   ....        ...................         ...................... .....            ........................    ...  .......................       .....................   ..  ",
" ................................  .    ..........................       ..................   ....       ....................                 .............     ..           ........................      ... ........................      ...................... .... ",
" ................................     ............................ .......................   .....       .....................              .................                .........................     ............................ ................................ ",
" ................................ ................................    ...................... ......    .......................              ...................              .................. ......      ...........................   .............................. ",
" ... ........................ ...      ...........................      ...........................   .......................   ..         ....................       ... ..  ................   .....      ...........................      ........................... ",
" ..   ......................   ..      ...........................      ........................... ... ..  ................   .....       ....................         .......................   ..        ...........................      ........................... ",
" .   ........................   .   ..............................      ...........................        .................. ......        ...................          .......................          ...................... ...... ................................ ",
"   ............................   ................................     ............................        .........................        .................              .....................       .......................   .....      ............................ ",
" ...   ....................   ...      ...................... ....     ... ........................        ........................           .............     ..         ....................              ..................   ....   .    .......................... ",
"      ......................           .....................   ..     ...  .......................          ........................  ...................... .....          ...................             ...................   ....   ... .................  .......  ",
"     ........................           ... .................  ..    ..     ......................           .......................     ..........................         ...............               .....................           ....................  .......  ",
"    ..  ..................  ..          ... ..............  ..  .           ..............  ......             ....................         .......................       .................              ...   .......... ....            ............. ......  .....    ",
"   .     .... ...... ....     .         ...  ..............  ..                  ..........  ....          .......................           .....................      ....   .................               .........                   ...........   ...    .....    ",
"          ...   ..   ...                .     ..   ..... ..   ..                ........ ..  ....         .......................             ...................             ... ..............          ................                 ............          ....    ",
"          ...        ...                .         .....   ..                   .........  .. ...        ... ..  ....  ..  ......              ... .. ............            ..   ..............            .................               ............                 ",
"           .          .                           ...      .                   ...    ..  .. .                    ..  .. ......              ...  ..  ..........            .    ...............             ................                ............                ",
"           .          .                           ...       .                 ...     ..   .                      ..  .. ....                .   ..  .........                ...............                 ..............                   ..........                ",
"           .          .                           .                          .         .                          .   .  ..                 .    .  ........                    .............                   ............                     ... ...                 ",
"                                                  .                                    .                          .   .                          . .......                        .........                        .....                                                 ",
"                                                                                                                                                                                                                                                                         ",
"                                                                                                                                                                                                                                                                         ",
"                                                                                                                                                                                                                                                                         ",
"                                                                                                                                                                                                                                                                         ",
"                                                                                                                                                                                                                                                                         ",
"                                                 .                            .                                  .   .                          ....... .                        .........                            .....                                              ",
"           .          .                          .                            .         .                    ..  .   .                        ........  .    .                 .............                      ............                          ... ...          ",
"           .          .                .       ...                        .   ..     ...                   .... ..  ..                      .........  ..   .                  ...............                    ..............                       ..........        ",
"           .          .                 .      ...                      . ..  ..    ...                  ...... ..  ..                    ..........  ..  ...               ...............    .                 ................                      ............      ",
"          ...        ...                ..   .....         .          ... ..  .........                 ......  ..  ....  .. ...         ............ .. ...                ..............   ..                  .................                      ............     ",
"          ...   ..   ...            ..   .. .....   ..     .         ....  .. ........                 .......................           ...................                .............. ...                      ................       ....          ............    ",
"   .     .... ...... ....     .      ..  ..............  ...         ....  ..........                 .......................           .....................               .................   ....                  .........            .....    ...   ...........    ",
"    ..  ..................  ..     .  ..  .............. ...        ......  ..............           ....................              .......................                   .................              .... ..........   ...      .....  ...... .............   ",
"     ........................      ..  ................. ...        ......................     ..   .......................            ..........................                ...............               .....................     .......  ....................   ",
"      ......................       ..   .....................       .......................  ...    ........................            ..... ......................         ...................        ....   ...................       .......  ................. ...  ",
" ...   ....................   ... .... ......................      ........................ ...      ........................           ..     .............                 ....................       ....   ..................       ..........................    .  ",
"   ............................   ................................ ............................     .........................                .................              .....................       .....   ....................... ............................     ",
" .   ........................   . ..............................   ...........................      ...... ..................              ...................              .......................    ...... ......................    ................................ ",
" ..   ......................   .. ...........................      ...........................      .....   ................  .. ...       ....................         ..   .......................   ...........................      ...........................      ",
" ... ........................ ... ...........................      ...........................        ..   .......................         ....................       .....   ................  .. ... ...........................      ...........................      ",
" ................................ ................................ ...... ......................          .......................          ...................        ...... ..................        ...........................      ..............................   ",
" ................................ ............................      .....   .......................       .....................              .................        .........................        ............................     ................................ ",
" ................................ ..........................    .   ....   ..................              ....................         ..     .............           ........................        ........................ ...     .... ......................      ",
"  ..............................   .......  ................. ...   ....   ...................             ...................          ..... ......................  ........................          .......................  ...     ..   .....................      ",
"  ........... ...... ...........   .......  ....................           .....................               ...............         ..........................     .......................           ......................     ..    ..  ................. ...       ",
"   ........   ......   ........      .....  ...... .............            .... ..........   ...              .................       .......................         ....................             ......  ..............           .  ..  .............. ...       ",
"   .........   ....   .........      .....    ...   ...........                   .........               .................   ....      .....................           .......................          ....  ..........                  ..  ..............  ...       ",
"    ........          ........       ....          ............                 ................          .............. ...             ...................             .......................         ....  .. ........                ..   .. .....   ..     .       ",
"     ........        ........                     ............               .................            ..............   ..            ............ .. ...              ......  ..  ....  .. ...        ... ..  .........                   ..   .....         .       ",
"        .....        .....                       ............                ................             ...............    .            ..........  ..  ...              ...... ..  ..                    . ..  ..    ...                   .      ...                 ",
"         ..           ..                         ..........                   ..............                 ...............                .........  ..   .                .... ..  ..                      .   ..     ...                 .       ...                 ",
"                                                  ... ...                     ............                   .............                    ........  .    .                 ..  .   .                          .         .                          .                 ",
"                                                                                  .....                        .........                        ....... .                          .   .                          .                                    .                 ",
"                                                                                                                                                                                                                                                                         ",
"                                                                                                                                                                                                                                                                         ",
"                                                                                                                                                                                                                                                                         "};
