/* XPM */
static char * monster2_xpm[] = {
"192 31 2 1",
" 	c None",
".	c #0000FF",
"            .....                                                           ......                            ......                                                           .....            ",
"          .........                              .....                    ..........                        ..........                    .....                              .........          ",
"         ...........                           ........                  ............                      ............                  ........                           ...........         ",
"        ............                        ............                .............                      .............                ............                        ............        ",
"       .............                      ..............               ..............                      ..............               ..............                      .............       ",
"      .............                     ................              ..............                        ..............              ................                     .............      ",
"     .............                    .............. ..              ..............                          ..............              .. ..............                    .............     ",
"    ...........                     ..............                  ..........                                    ..........                  ..............                     ...........    ",
"   ...........                    ..............                   ..........                                      ..........                   ..............                    ...........   ",
"  ...........      ..........  .  ............     ..........  .  ..........       ..........  ..  ..........       ..........  .  ..........     ............  .  ..........      ...........  ",
"  ..........      ........... .. ............     ........... ..  .........       ........... .... ...........       .........  .. ...........     ............ .. ...........      ..........  ",
"  ...........  .......   ....... ............  .......   .......  ..........   .......   ..............   .......   ..........  .......   .......  ............ .......   .......  ...........  ",
"   .....................  ......  ......  ..............  ......    ......... ..........  ............  .......... .........    ......  ..............  ......  ......  .....................   ",
"    .....................  .. ..  .....    ..............  .. ..    .....................  .. .... ..  .....................    .. ..  ..............    .....  .. ..  .....................    ",
"    ......  ..............     .   ...      ..............     .   ....... ...............     ..     ............... .......   .     ..............      ...   .     ..............  ......    ",
"   ......   ...............       ...       ...............        ......   ...............          ...............   ......        ...............       ...       ...............   ......   ",
"   .....     ................     ..         ................      .....     ................      ................     .....      ................         ..     ................     .....   ",
"    ...........................     ...........................     ...........................  ...........................     ...........................     ...........................    ",
"  .........................   ..  .........................   ..  .........................   ....   .........................  ..   .........................  ..   .........................  ",
"................... ........    ................... ........    ................... ........        ........ ...................    ........ ...................    ........ ...................",
"  ................  ............  ................  ............  ................  ........................  ................  ............  ................  ............  ................  ",
"  ............ ..    ..........   ............ ..    ..........   ............ ..    ..........  ..........    .. ............   ..........    .. ............   ..........    .. ............  ",
"...........       ........ ...  ...........       ........ ...  ...........       ........ ...    ... ........       ...........  ... ........       ...........  ... ........       ...........",
"  .......      ....... ..  ..     .......      ....... ..  ..     .......      ....... ..  ..      ..  .. .......      .......     ..  .. .......      .......     ..  .. .......      .......  ",
"          ...........      .              ...........      .              ...........      .        .      ...........              .      ...........              .      ...........          ",
"       ............                    ............                    ............                          ............                    ............                    ............       ",
"     ................                ................                ................                      ................                ................                ................     ",
"    ....................            ....................            ....................                ....................            ....................            ....................    ",
"   .......................         .......................         .......................            .......................         .......................         .......................   ",
"   .........................       .........................       .........................        .........................       .........................       .........................   ",
"   ...........................     ...........................     ...........................    ...........................     ...........................     ...........................   "};
