/* XPM */
static char * powerupspeed_xpm[] = {
"96 20 2 1",
" 	c None",
".	c #0018FF",
"    .              .        .              .        .              .        .              .    ",
"   ...            ...      ...            ...      ...            ...      ...            ...   ",
"  .....  ......  .....    .....  ......  .....    .....  ......  .....    .....  ......  .....  ",
" ...... ........ ......  ...... ........ ......  ...... ........ ......  ...... ........ ...... ",
"....... ........ .............. ........ .............. ........ .............. ........ .......",
"  ....................    ....................    ....................    ....................  ",
"      ............            ............            ............            ............      ",
"    ................        ................        ................        ................    ",
"   ..................      ..................      ..................      ..................   ",
"   ..................      ..................      ..................      ..................   ",
"   ..................      ..................      ..................      ..................   ",
"   ..................      ..................      ..................      ..................   ",
"    ................        ................        ................        ................    ",
"      ............            ............            ............            ............      ",
"  ....................    ....................    ....................    ....................  ",
"....... ........ .............. ........ .............. ........ .............. ........ .......",
" ...... ........ ......  ...... ........ ......  ...... ........ ......  ...... ........ ...... ",
"  .....  ......  .....    .....  ......  .....    .....  ......  .....    .....  ......  .....  ",
"   ...            ...      ...            ...      ...            ...      ...            ...   ",
"    .              .        .              .        .              .        .              .    "};
