/* XPM */
static char * powerupblue_xpm[] = {
"80 18 2 1",
" 	c None",
".	c #0018FF",
"      ........            ........            ........            ........      ",
"    ............        ............        ............        ............    ",
"   ..............      ..............      ..............      ..............   ",
"  ................    ................    ................    ................  ",
" ..................  ..................  ..................  .................. ",
" ..................  ..................  ..................  .................. ",
"................................................................................",
"................................................................................",
"................................................................................",
"................................................................................",
"................................................................................",
"................................................................................",
" ..................  ..................  ..................  .................. ",
" ..................  ..................  ..................  .................. ",
"  ................    ................    ................    ................  ",
"   ..............      ..............      ..............      ..............   ",
"    ............        ............        ............        ............    ",
"      ........            ........            ........            ........      "};
