/* XPM */
static char * purpleship_xpm[] = {
"157 15 2 1",
" 	c None",
".	c #0000FF",
"                                                                                                                               ...                           ",
" ...                            ....                            . ........                     ....                              ... ............            ",
"   ... ............              ..........                     .............                   ..........                   .  . ...  ...........           ",
" ...................             .............   ....          ................ ...          .  .............   ....          .... ...................       ",
"........................       ........................      .  . ........   . .......        ........................         ...........................   ",
"............................    ..........................    ..      ...................    . ..........................     . ...........     ............ ",
".............................. . .. ........................   ...   .....   ..............   . ...... ....................  ...  ...........................",
"................................. ...........................   ............................  .. ............. .............  ...............................",
"....     ...................... ... .......   .................  .... ....................... ... ....... ................... ..  ...........................",
" ...........   ................. .........     .................  .... ...................... ....  ....... ................. ..  ...........................",
".. ........     ................. .................   .................. ..... .....  ....... .. ... ......... ...   ........ ..............    ............ ",
".............................. ....... ..............   ..... ..  ....... ........       ...  ....... ..............   .....  ..  ..................         ",
"..  ..................         ..  ..... ..........           .       ......                  ..  ....  ..........            .     .  .  ........           ",
".    .. ............           .      ..                                                      .      ..                              ............            ",
"       .. .........                                                                                                                                          "};
