/* XPM */
static char * redship_xpm[] = {
"158 15 2 1",
" 	c None",
".	c #0000FF",
"                                                                                                                                ...                           ",
" ...                            ....                             . ........                     ....                              ... ............            ",
"   ... ............              ..........                      .............                   ..........                   .  . ...  ...........           ",
"  ..................            ..............   ....           ................ ...          .  .............   ....          .... ...................       ",
"........................       ........................       .  . ........   . .......        ........................         ...........................   ",
"............................    ..........................     ..      ...................    . ..........................     . ...........     ............ ",
".............................. .... ........................    ...   .....   ..............   . ...... ....................  ...  ...........................",
"................................. ...........................    ............................  .. ............. .............  ...............................",
"....     ...................... ... .......   ................ .  .... ....................... ... ....... ................... ..  ...........................",
" ...........   ................. .........     ............... ..  .... ...................... ....  ....... ................. ..  ...........................",
".. ........     ................. .................   ........ .......... ..... .....  ....... .. ... ......... ...   ........ ..............    ............ ",
".............................. ....... ..............   .....  ..  ....... ........       ...  ....... ..............   .....  ..  ..................         ",
"..  ..................         ..  ..... ..........            .       ......                  ..  ....  ..........            .     .  .  ........           ",
".    .. ............           .      ..                                                       .      ..                              ............            ",
"       .. .........                                                                                                                                           "};
