/* XPM */
static char * tealship_xpm[] = {
"159 15 2 1",
" 	c None",
".	c #0000FF",
"                                                                                                                                 ...                           ",
" ...                             ....                             . ........                     ....                              ... ............            ",
"   ... ............               ..........                      .............                   ..........                   .  . ...  ...........           ",
"  ..................           .  .............   ....           ................ ...          .  .............   ....          .... ...................       ",
"........................        ........................       .  . ........   . .......        ........................         ...........................   ",
"............................     ..........................     ..      ...................    . ..........................     . ...........     ............ ",
".............................. .. .. ........................    ...   .....   ..............   . ...... ....................  ...  ...........................",
"............................... .. ...........................    ............................  .. ............. .............  ...............................",
"....     ......................  ... .......   ................ .  .... ....................... ... ....... ................... ..  ...........................",
" ...........   ................ . .........     ............... ..  .... ...................... ....  ....... ................. ..  ...........................",
".. ........     ............... .. .................   ........ .......... ..... .....  ....... .. ... ......... ...   ........ ..............    ............ ",
"..............................  ....... ..............   .....  ..  ....... ........       ...  ....... ..............   .....  ..  ..................         ",
"..  ..................          ..  ..... ..........            .       ......                  ..  ....  ..........            .     .  .  ........           ",
".    .. ............            .      ..                                                       .      ..                              ............            ",
"       .. .........                                                                                                                                            "};
